<mxfile host="app.diagrams.net" modified="2023-06-18T12:03:03.678Z" agent="Mozilla/5.0 (Macintosh; Intel Mac OS X 10_15_7) AppleWebKit/537.36 (KHTML, like Gecko) Chrome/113.0.0.0 Safari/537.36" etag="imRutqTgtcZgcKNdP5gD" version="21.4.0" type="github">
  <diagram id="C5RBs43oDa-KdzZeNtuy" name="Page-1">
    <mxGraphModel dx="1961" dy="1870" grid="1" gridSize="10" guides="1" tooltips="1" connect="1" arrows="1" fold="1" page="1" pageScale="1" pageWidth="827" pageHeight="1169" math="0" shadow="0">
      <root>
        <mxCell id="WIyWlLk6GJQsqaUBKTNV-0" />
        <mxCell id="WIyWlLk6GJQsqaUBKTNV-1" parent="WIyWlLk6GJQsqaUBKTNV-0" />
        <mxCell id="WIyWlLk6GJQsqaUBKTNV-2" value="" style="rounded=0;html=1;jettySize=auto;orthogonalLoop=1;fontSize=11;endArrow=block;endFill=0;endSize=8;strokeWidth=1;shadow=0;labelBackgroundColor=none;edgeStyle=orthogonalEdgeStyle;exitX=0.5;exitY=1;exitDx=0;exitDy=0;" parent="WIyWlLk6GJQsqaUBKTNV-1" source="6pGRruyuYZNIrlc8Anhu-3" target="WIyWlLk6GJQsqaUBKTNV-6" edge="1">
          <mxGeometry relative="1" as="geometry" />
        </mxCell>
        <mxCell id="6pGRruyuYZNIrlc8Anhu-134" style="edgeStyle=orthogonalEdgeStyle;rounded=0;orthogonalLoop=1;jettySize=auto;html=1;entryX=0.5;entryY=0;entryDx=0;entryDy=0;" edge="1" parent="WIyWlLk6GJQsqaUBKTNV-1" source="WIyWlLk6GJQsqaUBKTNV-3" target="6pGRruyuYZNIrlc8Anhu-3">
          <mxGeometry relative="1" as="geometry" />
        </mxCell>
        <mxCell id="WIyWlLk6GJQsqaUBKTNV-3" value="START" style="rounded=1;whiteSpace=wrap;html=1;fontSize=12;glass=0;strokeWidth=1;shadow=0;" parent="WIyWlLk6GJQsqaUBKTNV-1" vertex="1">
          <mxGeometry x="470" y="-240" width="120" height="70" as="geometry" />
        </mxCell>
        <mxCell id="WIyWlLk6GJQsqaUBKTNV-4" value="Yes" style="rounded=0;html=1;jettySize=auto;orthogonalLoop=1;fontSize=11;endArrow=block;endFill=0;endSize=8;strokeWidth=1;shadow=0;labelBackgroundColor=none;edgeStyle=orthogonalEdgeStyle;entryX=0.5;entryY=0;entryDx=0;entryDy=0;" parent="WIyWlLk6GJQsqaUBKTNV-1" source="WIyWlLk6GJQsqaUBKTNV-6" target="6pGRruyuYZNIrlc8Anhu-7" edge="1">
          <mxGeometry x="0.0109" y="40" relative="1" as="geometry">
            <mxPoint as="offset" />
            <mxPoint x="240" y="290" as="targetPoint" />
          </mxGeometry>
        </mxCell>
        <mxCell id="WIyWlLk6GJQsqaUBKTNV-5" value="No" style="edgeStyle=orthogonalEdgeStyle;rounded=0;html=1;jettySize=auto;orthogonalLoop=1;fontSize=11;endArrow=block;endFill=0;endSize=8;strokeWidth=1;shadow=0;labelBackgroundColor=none;" parent="WIyWlLk6GJQsqaUBKTNV-1" source="WIyWlLk6GJQsqaUBKTNV-6" target="WIyWlLk6GJQsqaUBKTNV-7" edge="1">
          <mxGeometry y="10" relative="1" as="geometry">
            <mxPoint as="offset" />
          </mxGeometry>
        </mxCell>
        <mxCell id="WIyWlLk6GJQsqaUBKTNV-6" value="USE THE WEB?" style="rhombus;whiteSpace=wrap;html=1;shadow=0;fontFamily=Helvetica;fontSize=12;align=center;strokeWidth=1;spacing=6;spacingTop=-4;" parent="WIyWlLk6GJQsqaUBKTNV-1" vertex="1">
          <mxGeometry x="480" y="80" width="100" height="80" as="geometry" />
        </mxCell>
        <mxCell id="6pGRruyuYZNIrlc8Anhu-45" style="edgeStyle=orthogonalEdgeStyle;rounded=0;orthogonalLoop=1;jettySize=auto;html=1;entryX=1;entryY=0.5;entryDx=0;entryDy=0;" edge="1" parent="WIyWlLk6GJQsqaUBKTNV-1" source="WIyWlLk6GJQsqaUBKTNV-7" target="6pGRruyuYZNIrlc8Anhu-31">
          <mxGeometry relative="1" as="geometry">
            <mxPoint x="710" y="760" as="targetPoint" />
            <Array as="points">
              <mxPoint x="750" y="120" />
              <mxPoint x="1220" y="120" />
              <mxPoint x="1220" y="835" />
            </Array>
          </mxGeometry>
        </mxCell>
        <mxCell id="WIyWlLk6GJQsqaUBKTNV-7" value="LETS THE WAITER HELP US" style="rounded=1;whiteSpace=wrap;html=1;fontSize=12;glass=0;strokeWidth=1;shadow=0;" parent="WIyWlLk6GJQsqaUBKTNV-1" vertex="1">
          <mxGeometry x="810" y="100" width="120" height="40" as="geometry" />
        </mxCell>
        <mxCell id="6pGRruyuYZNIrlc8Anhu-108" style="edgeStyle=orthogonalEdgeStyle;rounded=0;orthogonalLoop=1;jettySize=auto;html=1;" edge="1" parent="WIyWlLk6GJQsqaUBKTNV-1" source="WIyWlLk6GJQsqaUBKTNV-12" target="6pGRruyuYZNIrlc8Anhu-109">
          <mxGeometry relative="1" as="geometry">
            <mxPoint x="800" y="320" as="targetPoint" />
          </mxGeometry>
        </mxCell>
        <mxCell id="6pGRruyuYZNIrlc8Anhu-110" style="edgeStyle=orthogonalEdgeStyle;rounded=0;orthogonalLoop=1;jettySize=auto;html=1;" edge="1" parent="WIyWlLk6GJQsqaUBKTNV-1" source="WIyWlLk6GJQsqaUBKTNV-12" target="6pGRruyuYZNIrlc8Anhu-111">
          <mxGeometry relative="1" as="geometry">
            <mxPoint x="770" y="420" as="targetPoint" />
            <Array as="points">
              <mxPoint x="720" y="320" />
              <mxPoint x="720" y="410" />
            </Array>
          </mxGeometry>
        </mxCell>
        <mxCell id="6pGRruyuYZNIrlc8Anhu-112" style="edgeStyle=orthogonalEdgeStyle;rounded=0;orthogonalLoop=1;jettySize=auto;html=1;" edge="1" parent="WIyWlLk6GJQsqaUBKTNV-1" source="WIyWlLk6GJQsqaUBKTNV-12" target="6pGRruyuYZNIrlc8Anhu-113">
          <mxGeometry relative="1" as="geometry">
            <mxPoint x="820" y="520" as="targetPoint" />
            <Array as="points">
              <mxPoint x="720" y="320" />
              <mxPoint x="720" y="505" />
            </Array>
          </mxGeometry>
        </mxCell>
        <mxCell id="WIyWlLk6GJQsqaUBKTNV-12" value="MENU" style="rounded=1;whiteSpace=wrap;html=1;fontSize=12;glass=0;strokeWidth=1;shadow=0;" parent="WIyWlLk6GJQsqaUBKTNV-1" vertex="1">
          <mxGeometry x="550" y="290" width="150" height="60" as="geometry" />
        </mxCell>
        <mxCell id="6pGRruyuYZNIrlc8Anhu-3" value="ACCEPT THE PERSONAL HEALTH CONTENT?" style="rhombus;whiteSpace=wrap;html=1;shadow=0;fontFamily=Helvetica;fontSize=12;align=center;strokeWidth=1;spacing=6;spacingTop=-4;" vertex="1" parent="WIyWlLk6GJQsqaUBKTNV-1">
          <mxGeometry x="410" y="-110" width="240" height="150" as="geometry" />
        </mxCell>
        <mxCell id="6pGRruyuYZNIrlc8Anhu-120" style="edgeStyle=orthogonalEdgeStyle;rounded=0;orthogonalLoop=1;jettySize=auto;html=1;exitX=0.5;exitY=1;exitDx=0;exitDy=0;" edge="1" parent="WIyWlLk6GJQsqaUBKTNV-1" source="6pGRruyuYZNIrlc8Anhu-7" target="6pGRruyuYZNIrlc8Anhu-121">
          <mxGeometry relative="1" as="geometry">
            <mxPoint x="240" y="600" as="targetPoint" />
            <Array as="points">
              <mxPoint x="240" y="510" />
              <mxPoint x="330" y="510" />
            </Array>
          </mxGeometry>
        </mxCell>
        <mxCell id="6pGRruyuYZNIrlc8Anhu-139" style="edgeStyle=orthogonalEdgeStyle;rounded=0;orthogonalLoop=1;jettySize=auto;html=1;entryX=0;entryY=0.5;entryDx=0;entryDy=0;" edge="1" parent="WIyWlLk6GJQsqaUBKTNV-1" source="6pGRruyuYZNIrlc8Anhu-7" target="6pGRruyuYZNIrlc8Anhu-124">
          <mxGeometry relative="1" as="geometry">
            <Array as="points">
              <mxPoint x="240" y="510" />
              <mxPoint x="170" y="510" />
            </Array>
          </mxGeometry>
        </mxCell>
        <mxCell id="6pGRruyuYZNIrlc8Anhu-7" value="FILL IN THE APP THE PREFERENCES FOOD ALLEGIES" style="shape=trapezoid;perimeter=trapezoidPerimeter;whiteSpace=wrap;html=1;fixedSize=1;" vertex="1" parent="WIyWlLk6GJQsqaUBKTNV-1">
          <mxGeometry x="150" y="280" width="180" height="95" as="geometry" />
        </mxCell>
        <mxCell id="6pGRruyuYZNIrlc8Anhu-11" value="no" style="edgeStyle=orthogonalEdgeStyle;rounded=0;html=1;jettySize=auto;orthogonalLoop=1;fontSize=11;endArrow=block;endFill=0;endSize=8;strokeWidth=1;shadow=0;labelBackgroundColor=none;exitX=1;exitY=0.5;exitDx=0;exitDy=0;entryX=0;entryY=0.5;entryDx=0;entryDy=0;" edge="1" parent="WIyWlLk6GJQsqaUBKTNV-1" target="WIyWlLk6GJQsqaUBKTNV-12">
          <mxGeometry x="-0.7938" y="10" relative="1" as="geometry">
            <mxPoint as="offset" />
            <mxPoint x="320" y="315.25" as="sourcePoint" />
            <mxPoint x="580" y="314.75" as="targetPoint" />
            <Array as="points">
              <mxPoint x="320" y="325" />
              <mxPoint x="540" y="325" />
              <mxPoint x="540" y="315" />
              <mxPoint x="550" y="315" />
            </Array>
          </mxGeometry>
        </mxCell>
        <mxCell id="6pGRruyuYZNIrlc8Anhu-56" style="edgeStyle=orthogonalEdgeStyle;rounded=0;orthogonalLoop=1;jettySize=auto;html=1;" edge="1" parent="WIyWlLk6GJQsqaUBKTNV-1" source="6pGRruyuYZNIrlc8Anhu-28">
          <mxGeometry relative="1" as="geometry">
            <mxPoint x="300" y="1010" as="targetPoint" />
          </mxGeometry>
        </mxCell>
        <mxCell id="6pGRruyuYZNIrlc8Anhu-104" style="edgeStyle=orthogonalEdgeStyle;rounded=0;orthogonalLoop=1;jettySize=auto;html=1;entryX=0;entryY=0.5;entryDx=0;entryDy=0;" edge="1" parent="WIyWlLk6GJQsqaUBKTNV-1" source="6pGRruyuYZNIrlc8Anhu-28" target="6pGRruyuYZNIrlc8Anhu-31">
          <mxGeometry relative="1" as="geometry" />
        </mxCell>
        <mxCell id="6pGRruyuYZNIrlc8Anhu-28" value="WOULD YOU LIKE TO ADD OR REMOVE ADDITIONAL INGREDIENTS? (extra fee)" style="rhombus;whiteSpace=wrap;html=1;" vertex="1" parent="WIyWlLk6GJQsqaUBKTNV-1">
          <mxGeometry x="100" y="760" width="280" height="150" as="geometry" />
        </mxCell>
        <mxCell id="6pGRruyuYZNIrlc8Anhu-29" value="" style="endArrow=classic;html=1;rounded=0;entryX=0.5;entryY=0;entryDx=0;entryDy=0;exitX=0.5;exitY=1;exitDx=0;exitDy=0;" edge="1" parent="WIyWlLk6GJQsqaUBKTNV-1" source="6pGRruyuYZNIrlc8Anhu-121" target="6pGRruyuYZNIrlc8Anhu-28">
          <mxGeometry width="50" height="50" relative="1" as="geometry">
            <mxPoint x="240" y="718.75" as="sourcePoint" />
            <mxPoint x="570" y="700" as="targetPoint" />
            <Array as="points">
              <mxPoint x="240" y="730" />
            </Array>
          </mxGeometry>
        </mxCell>
        <mxCell id="6pGRruyuYZNIrlc8Anhu-47" value="" style="edgeStyle=orthogonalEdgeStyle;rounded=0;orthogonalLoop=1;jettySize=auto;html=1;" edge="1" parent="WIyWlLk6GJQsqaUBKTNV-1" source="6pGRruyuYZNIrlc8Anhu-31">
          <mxGeometry relative="1" as="geometry">
            <mxPoint x="390" y="1480" as="targetPoint" />
            <Array as="points">
              <mxPoint x="631" y="1480" />
            </Array>
          </mxGeometry>
        </mxCell>
        <mxCell id="6pGRruyuYZNIrlc8Anhu-50" style="edgeStyle=orthogonalEdgeStyle;rounded=0;orthogonalLoop=1;jettySize=auto;html=1;" edge="1" parent="WIyWlLk6GJQsqaUBKTNV-1" source="6pGRruyuYZNIrlc8Anhu-31" target="6pGRruyuYZNIrlc8Anhu-51">
          <mxGeometry relative="1" as="geometry">
            <mxPoint x="631" y="600" as="targetPoint" />
          </mxGeometry>
        </mxCell>
        <mxCell id="6pGRruyuYZNIrlc8Anhu-106" style="edgeStyle=orthogonalEdgeStyle;rounded=0;orthogonalLoop=1;jettySize=auto;html=1;exitX=1;exitY=0;exitDx=0;exitDy=0;entryX=1;entryY=1;entryDx=0;entryDy=0;" edge="1" parent="WIyWlLk6GJQsqaUBKTNV-1" source="6pGRruyuYZNIrlc8Anhu-31" target="6pGRruyuYZNIrlc8Anhu-70">
          <mxGeometry relative="1" as="geometry">
            <mxPoint x="390" y="1520" as="targetPoint" />
            <Array as="points">
              <mxPoint x="751" y="807" />
              <mxPoint x="751" y="1520" />
              <mxPoint x="343" y="1520" />
            </Array>
          </mxGeometry>
        </mxCell>
        <mxCell id="6pGRruyuYZNIrlc8Anhu-31" value="WOULD YOU LIKE TO DRINK&amp;nbsp; SOMETHING?" style="rhombus;whiteSpace=wrap;html=1;" vertex="1" parent="WIyWlLk6GJQsqaUBKTNV-1">
          <mxGeometry x="531" y="780" width="200" height="110" as="geometry" />
        </mxCell>
        <mxCell id="6pGRruyuYZNIrlc8Anhu-49" value="Yes" style="text;html=1;strokeColor=none;fillColor=none;align=center;verticalAlign=middle;whiteSpace=wrap;rounded=0;" vertex="1" parent="WIyWlLk6GJQsqaUBKTNV-1">
          <mxGeometry x="620" y="890" width="60" height="30" as="geometry" />
        </mxCell>
        <mxCell id="6pGRruyuYZNIrlc8Anhu-52" style="edgeStyle=orthogonalEdgeStyle;rounded=0;orthogonalLoop=1;jettySize=auto;html=1;" edge="1" parent="WIyWlLk6GJQsqaUBKTNV-1" source="6pGRruyuYZNIrlc8Anhu-51">
          <mxGeometry relative="1" as="geometry">
            <mxPoint x="630" y="360" as="targetPoint" />
          </mxGeometry>
        </mxCell>
        <mxCell id="6pGRruyuYZNIrlc8Anhu-54" style="edgeStyle=orthogonalEdgeStyle;rounded=0;orthogonalLoop=1;jettySize=auto;html=1;exitX=0;exitY=0.5;exitDx=0;exitDy=0;" edge="1" parent="WIyWlLk6GJQsqaUBKTNV-1" source="6pGRruyuYZNIrlc8Anhu-51">
          <mxGeometry relative="1" as="geometry">
            <mxPoint x="300" y="440" as="targetPoint" />
            <Array as="points">
              <mxPoint x="480" y="600" />
              <mxPoint x="480" y="440" />
              <mxPoint x="330" y="440" />
            </Array>
          </mxGeometry>
        </mxCell>
        <mxCell id="6pGRruyuYZNIrlc8Anhu-51" value="ANY ALLERGIES?" style="rhombus;whiteSpace=wrap;html=1;" vertex="1" parent="WIyWlLk6GJQsqaUBKTNV-1">
          <mxGeometry x="560" y="550" width="140" height="100" as="geometry" />
        </mxCell>
        <mxCell id="6pGRruyuYZNIrlc8Anhu-53" value="No" style="text;html=1;align=center;verticalAlign=middle;resizable=0;points=[];autosize=1;strokeColor=none;fillColor=none;" vertex="1" parent="WIyWlLk6GJQsqaUBKTNV-1">
          <mxGeometry x="630" y="530" width="40" height="30" as="geometry" />
        </mxCell>
        <mxCell id="6pGRruyuYZNIrlc8Anhu-55" value="Yes" style="text;html=1;align=center;verticalAlign=middle;resizable=0;points=[];autosize=1;strokeColor=none;fillColor=none;" vertex="1" parent="WIyWlLk6GJQsqaUBKTNV-1">
          <mxGeometry x="520" y="570" width="40" height="30" as="geometry" />
        </mxCell>
        <mxCell id="6pGRruyuYZNIrlc8Anhu-59" style="edgeStyle=orthogonalEdgeStyle;rounded=0;orthogonalLoop=1;jettySize=auto;html=1;entryX=0;entryY=1;entryDx=0;entryDy=0;" edge="1" parent="WIyWlLk6GJQsqaUBKTNV-1" source="6pGRruyuYZNIrlc8Anhu-58" target="6pGRruyuYZNIrlc8Anhu-31">
          <mxGeometry relative="1" as="geometry" />
        </mxCell>
        <mxCell id="6pGRruyuYZNIrlc8Anhu-62" style="edgeStyle=orthogonalEdgeStyle;rounded=0;orthogonalLoop=1;jettySize=auto;html=1;entryX=0.513;entryY=-0.108;entryDx=0;entryDy=0;entryPerimeter=0;" edge="1" parent="WIyWlLk6GJQsqaUBKTNV-1" source="6pGRruyuYZNIrlc8Anhu-58">
          <mxGeometry relative="1" as="geometry">
            <mxPoint x="301.03999999999996" y="1191.3600000000001" as="targetPoint" />
            <Array as="points">
              <mxPoint x="300" y="1191" />
            </Array>
          </mxGeometry>
        </mxCell>
        <mxCell id="6pGRruyuYZNIrlc8Anhu-58" value="would you like another dish?" style="rhombus;whiteSpace=wrap;html=1;" vertex="1" parent="WIyWlLk6GJQsqaUBKTNV-1">
          <mxGeometry x="240" y="1010" width="120" height="100" as="geometry" />
        </mxCell>
        <mxCell id="6pGRruyuYZNIrlc8Anhu-60" value="No" style="text;html=1;align=center;verticalAlign=middle;resizable=0;points=[];autosize=1;strokeColor=none;fillColor=none;" vertex="1" parent="WIyWlLk6GJQsqaUBKTNV-1">
          <mxGeometry x="350" y="1030" width="40" height="30" as="geometry" />
        </mxCell>
        <mxCell id="6pGRruyuYZNIrlc8Anhu-63" value="Yes" style="text;html=1;align=center;verticalAlign=middle;resizable=0;points=[];autosize=1;strokeColor=none;fillColor=none;" vertex="1" parent="WIyWlLk6GJQsqaUBKTNV-1">
          <mxGeometry x="300" y="1128" width="40" height="30" as="geometry" />
        </mxCell>
        <mxCell id="6pGRruyuYZNIrlc8Anhu-67" style="edgeStyle=orthogonalEdgeStyle;rounded=0;orthogonalLoop=1;jettySize=auto;html=1;entryX=0;entryY=0.5;entryDx=0;entryDy=0;" edge="1" parent="WIyWlLk6GJQsqaUBKTNV-1" source="6pGRruyuYZNIrlc8Anhu-64" target="6pGRruyuYZNIrlc8Anhu-7">
          <mxGeometry relative="1" as="geometry">
            <mxPoint x="160" y="390" as="targetPoint" />
            <Array as="points">
              <mxPoint x="50" y="1260" />
              <mxPoint x="50" y="328" />
            </Array>
          </mxGeometry>
        </mxCell>
        <mxCell id="6pGRruyuYZNIrlc8Anhu-71" value="" style="edgeStyle=orthogonalEdgeStyle;rounded=0;orthogonalLoop=1;jettySize=auto;html=1;" edge="1" parent="WIyWlLk6GJQsqaUBKTNV-1" source="6pGRruyuYZNIrlc8Anhu-64" target="6pGRruyuYZNIrlc8Anhu-70">
          <mxGeometry relative="1" as="geometry" />
        </mxCell>
        <mxCell id="6pGRruyuYZNIrlc8Anhu-64" value="PRESENTE THE MENU AGAIN" style="rhombus;whiteSpace=wrap;html=1;" vertex="1" parent="WIyWlLk6GJQsqaUBKTNV-1">
          <mxGeometry x="215" y="1190" width="170" height="140" as="geometry" />
        </mxCell>
        <mxCell id="6pGRruyuYZNIrlc8Anhu-68" value="Yes" style="text;html=1;align=center;verticalAlign=middle;resizable=0;points=[];autosize=1;strokeColor=none;fillColor=none;" vertex="1" parent="WIyWlLk6GJQsqaUBKTNV-1">
          <mxGeometry x="120" y="1208" width="40" height="30" as="geometry" />
        </mxCell>
        <mxCell id="6pGRruyuYZNIrlc8Anhu-77" value="" style="edgeStyle=orthogonalEdgeStyle;rounded=0;orthogonalLoop=1;jettySize=auto;html=1;" edge="1" parent="WIyWlLk6GJQsqaUBKTNV-1" source="6pGRruyuYZNIrlc8Anhu-70">
          <mxGeometry relative="1" as="geometry">
            <mxPoint x="300" y="1630" as="targetPoint" />
          </mxGeometry>
        </mxCell>
        <mxCell id="6pGRruyuYZNIrlc8Anhu-70" value="SEND THE ORDER(to be prepare to start)" style="rhombus;whiteSpace=wrap;html=1;" vertex="1" parent="WIyWlLk6GJQsqaUBKTNV-1">
          <mxGeometry x="215" y="1410" width="170" height="140" as="geometry" />
        </mxCell>
        <mxCell id="6pGRruyuYZNIrlc8Anhu-72" value="No" style="text;html=1;align=center;verticalAlign=middle;resizable=0;points=[];autosize=1;strokeColor=none;fillColor=none;" vertex="1" parent="WIyWlLk6GJQsqaUBKTNV-1">
          <mxGeometry x="300" y="1330" width="40" height="30" as="geometry" />
        </mxCell>
        <mxCell id="6pGRruyuYZNIrlc8Anhu-73" value="No" style="text;html=1;align=center;verticalAlign=middle;resizable=0;points=[];autosize=1;strokeColor=none;fillColor=none;" vertex="1" parent="WIyWlLk6GJQsqaUBKTNV-1">
          <mxGeometry x="630" y="760" width="40" height="30" as="geometry" />
        </mxCell>
        <mxCell id="6pGRruyuYZNIrlc8Anhu-80" style="edgeStyle=orthogonalEdgeStyle;rounded=0;orthogonalLoop=1;jettySize=auto;html=1;entryX=0.5;entryY=0;entryDx=0;entryDy=0;exitX=0.5;exitY=1;exitDx=0;exitDy=0;" edge="1" parent="WIyWlLk6GJQsqaUBKTNV-1" source="6pGRruyuYZNIrlc8Anhu-82" target="6pGRruyuYZNIrlc8Anhu-81">
          <mxGeometry relative="1" as="geometry">
            <mxPoint x="300" y="1920" as="targetPoint" />
            <mxPoint x="300" y="1770" as="sourcePoint" />
          </mxGeometry>
        </mxCell>
        <mxCell id="6pGRruyuYZNIrlc8Anhu-84" value="" style="edgeStyle=orthogonalEdgeStyle;rounded=0;orthogonalLoop=1;jettySize=auto;html=1;" edge="1" parent="WIyWlLk6GJQsqaUBKTNV-1" source="6pGRruyuYZNIrlc8Anhu-81">
          <mxGeometry relative="1" as="geometry">
            <mxPoint x="490" y="1870" as="targetPoint" />
          </mxGeometry>
        </mxCell>
        <mxCell id="6pGRruyuYZNIrlc8Anhu-87" value="" style="edgeStyle=orthogonalEdgeStyle;rounded=0;orthogonalLoop=1;jettySize=auto;html=1;" edge="1" parent="WIyWlLk6GJQsqaUBKTNV-1" source="6pGRruyuYZNIrlc8Anhu-81" target="6pGRruyuYZNIrlc8Anhu-86">
          <mxGeometry relative="1" as="geometry" />
        </mxCell>
        <mxCell id="6pGRruyuYZNIrlc8Anhu-81" value="WOULD YOU LIKE TO SPLIT THE BILL?" style="rhombus;whiteSpace=wrap;html=1;" vertex="1" parent="WIyWlLk6GJQsqaUBKTNV-1">
          <mxGeometry x="225" y="1800" width="150" height="140" as="geometry" />
        </mxCell>
        <mxCell id="6pGRruyuYZNIrlc8Anhu-82" value="CUSTOMEAL SHOW WHAT WE ORDER&amp;nbsp;" style="rounded=0;whiteSpace=wrap;html=1;" vertex="1" parent="WIyWlLk6GJQsqaUBKTNV-1">
          <mxGeometry x="215" y="1640" width="170" height="90" as="geometry" />
        </mxCell>
        <mxCell id="6pGRruyuYZNIrlc8Anhu-89" style="edgeStyle=orthogonalEdgeStyle;rounded=0;orthogonalLoop=1;jettySize=auto;html=1;exitX=0.34;exitY=1.014;exitDx=0;exitDy=0;exitPerimeter=0;" edge="1" parent="WIyWlLk6GJQsqaUBKTNV-1" source="6pGRruyuYZNIrlc8Anhu-91">
          <mxGeometry relative="1" as="geometry">
            <mxPoint x="380" y="2060" as="targetPoint" />
            <mxPoint x="530" y="1910" as="sourcePoint" />
            <Array as="points">
              <mxPoint x="531" y="2060" />
            </Array>
          </mxGeometry>
        </mxCell>
        <mxCell id="6pGRruyuYZNIrlc8Anhu-85" value="Yes" style="text;html=1;align=center;verticalAlign=middle;resizable=0;points=[];autosize=1;strokeColor=none;fillColor=none;" vertex="1" parent="WIyWlLk6GJQsqaUBKTNV-1">
          <mxGeometry x="370" y="1848" width="40" height="30" as="geometry" />
        </mxCell>
        <mxCell id="6pGRruyuYZNIrlc8Anhu-94" value="" style="edgeStyle=orthogonalEdgeStyle;rounded=0;orthogonalLoop=1;jettySize=auto;html=1;" edge="1" parent="WIyWlLk6GJQsqaUBKTNV-1" source="6pGRruyuYZNIrlc8Anhu-86" target="6pGRruyuYZNIrlc8Anhu-93">
          <mxGeometry relative="1" as="geometry" />
        </mxCell>
        <mxCell id="6pGRruyuYZNIrlc8Anhu-86" value="OPTIONS TO PAY THE BILL" style="rhombus;whiteSpace=wrap;html=1;" vertex="1" parent="WIyWlLk6GJQsqaUBKTNV-1">
          <mxGeometry x="225" y="1990" width="150" height="140" as="geometry" />
        </mxCell>
        <mxCell id="6pGRruyuYZNIrlc8Anhu-88" value="No" style="text;html=1;align=center;verticalAlign=middle;resizable=0;points=[];autosize=1;strokeColor=none;fillColor=none;" vertex="1" parent="WIyWlLk6GJQsqaUBKTNV-1">
          <mxGeometry x="290" y="1930" width="40" height="30" as="geometry" />
        </mxCell>
        <mxCell id="6pGRruyuYZNIrlc8Anhu-91" value="split the bill" style="rounded=0;whiteSpace=wrap;html=1;" vertex="1" parent="WIyWlLk6GJQsqaUBKTNV-1">
          <mxGeometry x="490" y="1840" width="120" height="60" as="geometry" />
        </mxCell>
        <mxCell id="6pGRruyuYZNIrlc8Anhu-95" style="edgeStyle=orthogonalEdgeStyle;rounded=0;orthogonalLoop=1;jettySize=auto;html=1;entryX=0;entryY=0.5;entryDx=0;entryDy=0;" edge="1" parent="WIyWlLk6GJQsqaUBKTNV-1" source="6pGRruyuYZNIrlc8Anhu-93" target="6pGRruyuYZNIrlc8Anhu-70">
          <mxGeometry relative="1" as="geometry">
            <mxPoint x="90" y="1730" as="targetPoint" />
            <Array as="points">
              <mxPoint x="95" y="1480" />
            </Array>
          </mxGeometry>
        </mxCell>
        <mxCell id="6pGRruyuYZNIrlc8Anhu-96" style="edgeStyle=orthogonalEdgeStyle;rounded=0;orthogonalLoop=1;jettySize=auto;html=1;exitX=0;exitY=0.5;exitDx=0;exitDy=0;" edge="1" parent="WIyWlLk6GJQsqaUBKTNV-1" source="6pGRruyuYZNIrlc8Anhu-93">
          <mxGeometry relative="1" as="geometry">
            <mxPoint x="10" y="2060.315789473684" as="targetPoint" />
          </mxGeometry>
        </mxCell>
        <mxCell id="6pGRruyuYZNIrlc8Anhu-93" value="KEEP GOING WITH THE ORDER" style="rhombus;whiteSpace=wrap;html=1;" vertex="1" parent="WIyWlLk6GJQsqaUBKTNV-1">
          <mxGeometry y="1990" width="170" height="140" as="geometry" />
        </mxCell>
        <mxCell id="6pGRruyuYZNIrlc8Anhu-103" value="No" style="text;html=1;align=center;verticalAlign=middle;resizable=0;points=[];autosize=1;strokeColor=none;fillColor=none;" vertex="1" parent="WIyWlLk6GJQsqaUBKTNV-1">
          <mxGeometry x="300" y="900" width="40" height="30" as="geometry" />
        </mxCell>
        <mxCell id="6pGRruyuYZNIrlc8Anhu-105" value="Yes" style="text;html=1;align=center;verticalAlign=middle;resizable=0;points=[];autosize=1;strokeColor=none;fillColor=none;" vertex="1" parent="WIyWlLk6GJQsqaUBKTNV-1">
          <mxGeometry x="430" y="810" width="40" height="30" as="geometry" />
        </mxCell>
        <mxCell id="6pGRruyuYZNIrlc8Anhu-107" value="No" style="text;html=1;align=center;verticalAlign=middle;resizable=0;points=[];autosize=1;strokeColor=none;fillColor=none;" vertex="1" parent="WIyWlLk6GJQsqaUBKTNV-1">
          <mxGeometry x="670" y="780" width="40" height="30" as="geometry" />
        </mxCell>
        <mxCell id="6pGRruyuYZNIrlc8Anhu-128" value="" style="edgeStyle=orthogonalEdgeStyle;rounded=0;orthogonalLoop=1;jettySize=auto;html=1;" edge="1" parent="WIyWlLk6GJQsqaUBKTNV-1" source="6pGRruyuYZNIrlc8Anhu-109" target="6pGRruyuYZNIrlc8Anhu-127">
          <mxGeometry relative="1" as="geometry" />
        </mxCell>
        <mxCell id="6pGRruyuYZNIrlc8Anhu-129" style="edgeStyle=orthogonalEdgeStyle;rounded=0;orthogonalLoop=1;jettySize=auto;html=1;entryX=0;entryY=0.5;entryDx=0;entryDy=0;" edge="1" parent="WIyWlLk6GJQsqaUBKTNV-1" source="6pGRruyuYZNIrlc8Anhu-109" target="6pGRruyuYZNIrlc8Anhu-130">
          <mxGeometry relative="1" as="geometry">
            <mxPoint x="960" y="220" as="targetPoint" />
          </mxGeometry>
        </mxCell>
        <mxCell id="6pGRruyuYZNIrlc8Anhu-109" value="DISH 1" style="rhombus;whiteSpace=wrap;html=1;" vertex="1" parent="WIyWlLk6GJQsqaUBKTNV-1">
          <mxGeometry x="810" y="280" width="80" height="80" as="geometry" />
        </mxCell>
        <mxCell id="6pGRruyuYZNIrlc8Anhu-111" value="DISH 2" style="rhombus;whiteSpace=wrap;html=1;" vertex="1" parent="WIyWlLk6GJQsqaUBKTNV-1">
          <mxGeometry x="810" y="370" width="80" height="80" as="geometry" />
        </mxCell>
        <mxCell id="6pGRruyuYZNIrlc8Anhu-113" value="DESSERT" style="rhombus;whiteSpace=wrap;html=1;" vertex="1" parent="WIyWlLk6GJQsqaUBKTNV-1">
          <mxGeometry x="810" y="457.5" width="80" height="80" as="geometry" />
        </mxCell>
        <mxCell id="6pGRruyuYZNIrlc8Anhu-121" value="DISH 2" style="rhombus;whiteSpace=wrap;html=1;" vertex="1" parent="WIyWlLk6GJQsqaUBKTNV-1">
          <mxGeometry x="290" y="585" width="80" height="80" as="geometry" />
        </mxCell>
        <mxCell id="6pGRruyuYZNIrlc8Anhu-124" value="DISH 1" style="rhombus;whiteSpace=wrap;html=1;direction=south;" vertex="1" parent="WIyWlLk6GJQsqaUBKTNV-1">
          <mxGeometry x="130" y="590" width="80" height="80" as="geometry" />
        </mxCell>
        <mxCell id="6pGRruyuYZNIrlc8Anhu-131" style="edgeStyle=orthogonalEdgeStyle;rounded=0;orthogonalLoop=1;jettySize=auto;html=1;" edge="1" parent="WIyWlLk6GJQsqaUBKTNV-1" source="6pGRruyuYZNIrlc8Anhu-127" target="6pGRruyuYZNIrlc8Anhu-132">
          <mxGeometry relative="1" as="geometry">
            <mxPoint x="1010" y="550" as="targetPoint" />
          </mxGeometry>
        </mxCell>
        <mxCell id="6pGRruyuYZNIrlc8Anhu-127" value="MEAL 1" style="rhombus;whiteSpace=wrap;html=1;" vertex="1" parent="WIyWlLk6GJQsqaUBKTNV-1">
          <mxGeometry x="970" y="280" width="80" height="80" as="geometry" />
        </mxCell>
        <mxCell id="6pGRruyuYZNIrlc8Anhu-130" value="MEAL 2" style="rhombus;whiteSpace=wrap;html=1;" vertex="1" parent="WIyWlLk6GJQsqaUBKTNV-1">
          <mxGeometry x="970" y="190" width="80" height="80" as="geometry" />
        </mxCell>
        <mxCell id="6pGRruyuYZNIrlc8Anhu-133" style="edgeStyle=orthogonalEdgeStyle;rounded=0;orthogonalLoop=1;jettySize=auto;html=1;" edge="1" parent="WIyWlLk6GJQsqaUBKTNV-1" source="6pGRruyuYZNIrlc8Anhu-132">
          <mxGeometry relative="1" as="geometry">
            <mxPoint x="1010" y="800" as="targetPoint" />
          </mxGeometry>
        </mxCell>
        <mxCell id="6pGRruyuYZNIrlc8Anhu-132" value="WOULD YOU LIKE TO ADD OR REMOVE AN INGREDIENT?(EXTRA FEE)" style="rhombus;whiteSpace=wrap;html=1;" vertex="1" parent="WIyWlLk6GJQsqaUBKTNV-1">
          <mxGeometry x="900" y="510" width="220" height="180" as="geometry" />
        </mxCell>
        <mxCell id="6pGRruyuYZNIrlc8Anhu-140" value="DISPLAY COSTUME MENU" style="rounded=0;whiteSpace=wrap;html=1;" vertex="1" parent="WIyWlLk6GJQsqaUBKTNV-1">
          <mxGeometry x="180" y="410" width="120" height="60" as="geometry" />
        </mxCell>
      </root>
    </mxGraphModel>
  </diagram>
</mxfile>
